<svg xmlns="http://www.w3.org/2000/svg" width="410" height="410" viewBox="0 0 410 410">
  <g id="Database" transform="translate(-5423.764 -8731.08)">
    <rect id="Rectangle_2" data-name="Rectangle 2" width="410" height="410" transform="translate(5423.764 8731.08)" fill="none"/>
    <path id="database-2" data-name="database" d="M269.254,43.96V71.435c0,24.212-60.3,43.96-134.627,43.96S0,95.647,0,71.435V43.96C0,19.747,60.3,0,134.627,0S269.254,19.747,269.254,43.96Zm0,61.818V167.6c0,24.212-60.3,43.96-134.627,43.96S0,191.809,0,167.6V105.778c28.924,19.919,81.863,29.192,134.627,29.192S240.33,125.7,269.254,105.778Zm0,96.162v61.818c0,24.212-60.3,43.96-134.627,43.96S0,287.971,0,263.759V201.94c28.924,19.919,81.863,29.192,134.627,29.192S240.33,221.86,269.254,201.94Z" transform="translate(5497.137 8785.221)"/>
  </g>
</svg>
