<svg xmlns="http://www.w3.org/2000/svg" width="410" height="410" viewBox="0 0 410 410">
  <g id="dolly-flatbed" transform="translate(-11568.973 -7614.08)">
    <rect id="Rectangle_10" data-name="Rectangle 10" width="410" height="410" transform="translate(11568.973 7614.08)" fill="none"/>
    <path id="dolly-flatbed-2" data-name="dolly-flatbed" d="M125.011,192.324H355.8a9.645,9.645,0,0,0,9.616-9.616V28.849a9.645,9.645,0,0,0-9.616-9.616H269.254v76.93L240.405,76.93,211.557,96.162V19.232H125.011a9.644,9.644,0,0,0-9.616,9.616V182.708A9.644,9.644,0,0,0,125.011,192.324Zm250.022,38.465H76.93V9.616A9.644,9.644,0,0,0,67.313,0H9.616A9.644,9.644,0,0,0,0,9.616V28.849a9.644,9.644,0,0,0,9.616,9.616H38.465V259.638a9.644,9.644,0,0,0,9.616,9.616H97.905a28.411,28.411,0,0,0-1.743,9.616,28.849,28.849,0,0,0,57.7,0,29.958,29.958,0,0,0-1.743-9.616H271.057a28.411,28.411,0,0,0-1.743,9.616,28.849,28.849,0,0,0,57.7,0,29.958,29.958,0,0,0-1.743-9.616h49.764a9.644,9.644,0,0,0,9.616-9.616V240.405A9.645,9.645,0,0,0,375.032,230.789Z" transform="translate(11581.648 7665.221)"/>
  </g>
</svg>
