<svg xmlns="http://www.w3.org/2000/svg" width="346.184" height="307.719" viewBox="0 0 346.184 307.719">
  <path id="exclamation-triangle" d="M342.287,264.454A28.865,28.865,0,0,1,317.3,307.719H28.881A28.866,28.866,0,0,1,3.893,264.454L148.1,14.415a28.866,28.866,0,0,1,49.977,0L342.287,264.454Zm-169.2-51.695a27.647,27.647,0,1,0,27.647,27.647A27.647,27.647,0,0,0,173.092,212.759Zm-26.248-99.375,4.458,81.738a7.212,7.212,0,0,0,7.2,6.819H187.68a7.212,7.212,0,0,0,7.2-6.819l4.458-81.738a7.212,7.212,0,0,0-7.2-7.605H154.044a7.212,7.212,0,0,0-7.2,7.605Z" fill="#ffa217"/>
</svg>
