<svg version="1.1" xmlns="http://www.w3.org/2000/svg" xmlns:xlink="http://www.w3.org/1999/xlink" width="48" height="48"><defs><linearGradient x1="0" y1="0" x2="0" y2="0" gradientUnits="userSpaceOnUse" id="color-1"><stop offset="0" stop-color="#000000" stop-opacity="0.3"></stop><stop offset="1" stop-color="#000000" stop-opacity="0"></stop></linearGradient><filter id="dropshadow-base"><feColorMatrix type="matrix" values="0 0 0 0 0  0 0 0 0 0  0 0 0 0 0  0 0 0 .8 0"></feColorMatrix> <feOffset dx="0" dy="1"></feOffset> <feGaussianBlur stdDeviation="1"></feGaussianBlur> <feComposite in="SourceGraphic"></feComposite></filter><filter id="dropshadow-banner" x="-10%" y="-10%" width="120%" height="130%"><feColorMatrix type="matrix" values="0 0 0 0 0  0 0 0 0 0  0 0 0 0 0  0 0 0 .4 0"></feColorMatrix> <feOffset dx="0" dy="1"></feOffset> <feGaussianBlur stdDeviation="0.5"></feGaussianBlur> <feComposite in="SourceGraphic"></feComposite></filter></defs><g fill="none" fill-rule="nonzero" stroke="none" stroke-width="none" stroke-linecap="butt" stroke-linejoin="miter" stroke-miterlimit="10" stroke-dasharray="" stroke-dashoffset="0" font-family="none" font-weight="none" font-size="none" text-anchor="none" style="mix-blend-mode: normal"><path d="M2,24c0,-12.15026 9.84974,-22 22,-22c12.15026,0 22,9.84974 22,22c0,12.15026 -9.84974,22 -22,22c-12.15026,0 -22,-9.84974 -22,-22z" id="base 1 5" fill-opacity="0" fill="#512da8" stroke-width="1"></path><path d="" fill="url(#color-1)" stroke-width="1"></path><path d="M24,17.33856c-4.44096,0 -8.23354,2.76228 -9.77011,6.66144c1.53657,3.89916 5.32915,6.66144 9.77011,6.66144c4.4454,0 8.23354,-2.76228 9.77011,-6.66144c-1.53657,-3.89916 -5.32471,-6.66144 -9.77011,-6.66144zM24,28.44096c-2.45141,0 -4.44096,-1.98955 -4.44096,-4.44096c0,-2.45141 1.98955,-4.44096 4.44096,-4.44096c2.45141,0 4.44096,1.98955 4.44096,4.44096c0,2.45141 -1.98955,4.44096 -4.44096,4.44096zM24,21.33542c-1.46996,0 -2.66458,1.19462 -2.66458,2.66458c0,1.46996 1.19462,2.66458 2.66458,2.66458c1.46996,0 2.66458,-1.19462 2.66458,-2.66458c0,-1.46996 -1.19462,-2.66458 -2.66458,-2.66458z" fill="none" stroke-width="0"></path><path d="M33.77011,24c-1.53657,3.89916 -5.32471,6.66144 -9.77011,6.66144c-4.44096,0 -8.23354,-2.76228 -9.77011,-6.66144c1.53657,-3.89916 5.32915,-6.66144 9.77011,-6.66144c4.4454,0 8.23354,2.76228 9.77011,6.66144zM28.44096,24c0,-2.45141 -1.98955,-4.44096 -4.44096,-4.44096c-2.45141,0 -4.44096,1.98955 -4.44096,4.44096c0,2.45141 1.98955,4.44096 4.44096,4.44096c2.45141,0 4.44096,-1.98955 4.44096,-4.44096zM26.66458,24c0,1.46996 -1.19462,2.66458 -2.66458,2.66458c-1.46996,0 -2.66458,-1.19462 -2.66458,-2.66458c0,-1.46996 1.19462,-2.66458 2.66458,-2.66458c1.46996,0 2.66458,1.19462 2.66458,2.66458z" fill="#ffffff" stroke-width="0"></path><path d="M2,24c0,-12.15026 9.84974,-22 22,-22c12.15026,0 22,9.84974 22,22c0,12.15026 -9.84974,22 -22,22c-12.15026,0 -22,-9.84974 -22,-22z" id="base 1 1 1" fill="none" stroke-width="1"></path><g fill="#000000" stroke-width="1" font-family="Roboto, sans-serif" font-weight="400" font-size="14" text-anchor="start"></g><rect x="2" y="2" width="44" height="22" fill="none" stroke-width="1"></rect><path d="M2,24v-22h44v22z" fill="none" stroke-width="1"></path><path d="M2,24v-22h44v22z" fill="none" stroke-width="1"></path><path d="M2,24v-22h44v22z" fill="none" stroke-width="1"></path><path d="M2,24v-22h44v22z" fill="none" stroke-width="1"></path></g></svg>