<svg version="1.1" xmlns="http://www.w3.org/2000/svg" xmlns:xlink="http://www.w3.org/1999/xlink" width="48" height="48"><defs><linearGradient x1="0" y1="0" x2="0" y2="0" gradientUnits="userSpaceOnUse" id="color-1"><stop offset="0" stop-color="#000000" stop-opacity="0.3"></stop><stop offset="1" stop-color="#000000" stop-opacity="0"></stop></linearGradient><filter id="dropshadow-base"><feColorMatrix type="matrix" values="0 0 0 0 0  0 0 0 0 0  0 0 0 0 0  0 0 0 .8 0"></feColorMatrix> <feOffset dx="0" dy="1"></feOffset> <feGaussianBlur stdDeviation="1"></feGaussianBlur> <feComposite in="SourceGraphic"></feComposite></filter><filter id="dropshadow-banner" x="-10%" y="-10%" width="120%" height="130%"><feColorMatrix type="matrix" values="0 0 0 0 0  0 0 0 0 0  0 0 0 0 0  0 0 0 .4 0"></feColorMatrix> <feOffset dx="0" dy="1"></feOffset> <feGaussianBlur stdDeviation="0.5"></feGaussianBlur> <feComposite in="SourceGraphic"></feComposite></filter></defs><g fill="none" fill-rule="nonzero" stroke="none" stroke-width="none" stroke-linecap="butt" stroke-linejoin="miter" stroke-miterlimit="10" stroke-dasharray="" stroke-dashoffset="0" font-family="none" font-weight="none" font-size="none" text-anchor="none" style="mix-blend-mode: normal"><path d="M2,24c0,-12.15026 9.84974,-22 22,-22c12.15026,0 22,9.84974 22,22c0,12.15026 -9.84974,22 -22,22c-12.15026,0 -22,-9.84974 -22,-22z" id="base 1 9" fill-opacity="0" fill="#512da8" stroke-width="1"></path><path d="" fill="url(#color-1)" stroke-width="1"></path><path d="M23.99778,19.11606c2.45085,0 4.43995,1.9891 4.43995,4.43995c0,0.57275 -0.11544,1.11887 -0.31524,1.62058l2.59737,2.59737c1.34086,-1.11887 2.39757,-2.56629 3.05025,-4.21795c-1.54066,-3.89828 -5.32794,-6.65992 -9.77233,-6.65992c-1.24319,0 -2.43309,0.222 -3.53864,0.62159l1.91806,1.91362c0.50171,-0.19536 1.04783,-0.31524 1.62058,-0.31524zM15.11788,16.69628l2.02462,2.02462l0.40404,0.40404c-1.46518,1.14551 -2.62401,2.66841 -3.31664,4.43107c1.53622,3.89828 5.32794,6.65992 9.76789,6.65992c1.37638,0 2.69061,-0.2664 3.89384,-0.75035l0.3774,0.3774l2.58849,2.59293l1.13219,-1.12775l-15.73962,-15.74406zM20.02847,21.60243l1.37194,1.37194c-0.03996,0.19092 -0.0666,0.38184 -0.0666,0.58163c0,1.46962 1.19435,2.66397 2.66397,2.66397c0.1998,0 0.39072,-0.02664 0.57719,-0.0666l1.37194,1.37194c-0.59051,0.29304 -1.24763,0.47063 -1.94914,0.47063c-2.45085,0 -4.43995,-1.9891 -4.43995,-4.43995c0,-0.70151 0.1776,-1.35862 0.47063,-1.95358zM23.85126,20.90536l2.79717,2.79717l0.01332,-0.14652c0,-1.46962 -1.19435,-2.66397 -2.66397,-2.66397z" fill="none" stroke-width="0"></path><path d="M22.3772,19.43129l-1.91806,-1.91362c1.10555,-0.3996 2.29545,-0.62159 3.53864,-0.62159c4.44439,0 8.23167,2.76165 9.77233,6.65992c-0.65267,1.65166 -1.70938,3.09908 -3.05025,4.21795l-2.59737,-2.59737c0.1998,-0.50171 0.31524,-1.04783 0.31524,-1.62058c0,-2.45085 -1.9891,-4.43995 -4.43995,-4.43995c-0.57275,0 -1.11887,0.11988 -1.62058,0.31524zM16.25007,15.5641l15.73962,15.74406l-1.13219,1.12775l-2.58849,-2.59293l-0.3774,-0.3774c-1.20323,0.48395 -2.51745,0.75035 -3.89384,0.75035c-4.43995,0 -8.23167,-2.76165 -9.76789,-6.65992c0.69263,-1.76266 1.85146,-3.28556 3.31664,-4.43107l-2.42865,-2.42865zM19.55783,23.55601c0,2.45085 1.9891,4.43995 4.43995,4.43995c0.70151,0 1.35862,-0.1776 1.94914,-0.47063l-1.37194,-1.37194c-0.18648,0.03996 -0.3774,0.0666 -0.57719,0.0666c-1.46962,0 -2.66397,-1.19435 -2.66397,-2.66397c0,-0.1998 0.02664,-0.39072 0.0666,-0.58163l-1.37194,-1.37194c-0.29304,0.59495 -0.47063,1.25207 -0.47063,1.95358zM23.99778,20.89204c1.46962,0 2.66397,1.19435 2.66397,2.66397l-0.01332,0.14652l-2.79717,-2.79717z" fill="#ffffff" stroke-width="0"></path><path d="M2,24c0,-12.15026 9.84974,-22 22,-22c12.15026,0 22,9.84974 22,22c0,12.15026 -9.84974,22 -22,22c-12.15026,0 -22,-9.84974 -22,-22z" id="base 1 5 1" fill="none" stroke-width="1"></path><path d="M2,24c0,-12.15026 9.84974,-22 22,-22c12.15026,0 22,9.84974 22,22c0,12.15026 -9.84974,22 -22,22c-12.15026,0 -22,-9.84974 -22,-22z" id="base 1 1 1" fill="none" stroke-width="1"></path><g fill="#000000" stroke-width="1" font-family="Roboto, sans-serif" font-weight="400" font-size="14" text-anchor="start"></g><rect x="2" y="2" width="44" height="22" fill="none" stroke-width="1"></rect><path d="M2,24v-22h44v22z" fill="none" stroke-width="1"></path><path d="M2,24v-22h44v22z" fill="none" stroke-width="1"></path><path d="M2,24v-22h44v22z" fill="none" stroke-width="1"></path><path d="M2,24v-22h44v22z" fill="none" stroke-width="1"></path><g fill="#000000" stroke-width="1" font-family="Roboto, sans-serif" font-weight="400" font-size="14" text-anchor="start"></g><rect x="2" y="2" width="44" height="22" fill="none" stroke-width="1"></rect><path d="M2,24v-22h44v22z" fill="none" stroke-width="1"></path><path d="M2,24v-22h44v22z" fill="none" stroke-width="1"></path><path d="M2,24v-22h44v22z" fill="none" stroke-width="1"></path><path d="M2,24v-22h44v22z" fill="none" stroke-width="1"></path></g></svg>