<svg xmlns="http://www.w3.org/2000/svg" width="44" height="44" viewBox="0 0 44 44">
  <g id="gear" transform="translate(-2 -2)">
    <path id="base_1_1_1" data-name="base 1 1 1" d="M2,24A22,22,0,1,1,24,46,22,22,0,0,1,2,24Z" fill="none"/>
    <path id="gear-2" data-name="gear" d="M13.439,16.922a3.609,3.609,0,1,1,3.609-3.609,3.609,3.609,0,0,1-3.609,3.609M21.1,14.313a8.012,8.012,0,0,0,.072-1,8.818,8.818,0,0,0-.072-1.031L23.277,10.6a.52.52,0,0,0,.124-.66L21.338,6.372a.507.507,0,0,0-.629-.227L18.142,7.176A7.475,7.475,0,0,0,16.4,6.166l-.382-2.733A.522.522,0,0,0,15.5,3H11.377a.521.521,0,0,0-.516.433L10.48,6.166A7.475,7.475,0,0,0,8.737,7.176L6.169,6.145a.507.507,0,0,0-.629.227L3.477,9.94a.508.508,0,0,0,.124.66l2.176,1.681A8.818,8.818,0,0,0,5.7,13.312a8.012,8.012,0,0,0,.072,1L3.6,16.024a.508.508,0,0,0-.124.66L5.54,20.252a.518.518,0,0,0,.629.227l2.568-1.042a7.162,7.162,0,0,0,1.743,1.021l.382,2.733a.521.521,0,0,0,.516.433H15.5a.521.521,0,0,0,.516-.433l.382-2.733a7.509,7.509,0,0,0,1.743-1.021l2.568,1.042a.518.518,0,0,0,.629-.227L23.4,16.684a.52.52,0,0,0-.124-.66L21.1,14.313Z" transform="translate(10.563 10.688)" fill="#fff"/>
  </g>
</svg>
