<svg xmlns="http://www.w3.org/2000/svg" width="410" height="410" viewBox="0 0 410 410">
  <g id="Group_1" data-name="Group 1" transform="translate(-5819.889 -8513.106)">
    <rect id="Rectangle_3" data-name="Rectangle 3" width="410" height="410" transform="translate(5819.889 8513.106)" fill="none"/>
    <path id="question-circle" d="M306.1,157.051A149.051,149.051,0,1,1,157.051,8,149.043,149.043,0,0,1,306.1,157.051ZM161.051,57.283C128.3,57.283,107.408,71.081,91,95.6a7.222,7.222,0,0,0,1.632,9.771l20.855,15.813a7.21,7.21,0,0,0,10.016-1.275c10.736-13.618,18.1-21.514,34.44-21.514,12.278,0,27.465,7.9,27.465,19.808,0,9-7.43,13.623-19.553,20.42-14.138,7.926-32.847,17.79-32.847,42.467v2.4a7.212,7.212,0,0,0,7.212,7.212H173.88a7.212,7.212,0,0,0,7.212-7.212v-.8c0-17.106,50-17.818,50-64.108C231.088,83.726,194.928,57.283,161.051,57.283Zm-4,149.051A27.647,27.647,0,1,0,184.7,233.981,27.678,27.678,0,0,0,157.051,206.334Z" transform="translate(5867.838 8561.055)"/>
  </g>
</svg>
