<svg version="1.1" xmlns="http://www.w3.org/2000/svg" xmlns:xlink="http://www.w3.org/1999/xlink" width="48" height="48"><defs><linearGradient x1="0" y1="0" x2="0" y2="0" gradientUnits="userSpaceOnUse" id="color-1"><stop offset="0" stop-color="#000000" stop-opacity="0.3"></stop><stop offset="1" stop-color="#000000" stop-opacity="0"></stop></linearGradient><filter id="dropshadow-base"><feColorMatrix type="matrix" values="0 0 0 0 0  0 0 0 0 0  0 0 0 0 0  0 0 0 .8 0"></feColorMatrix> <feOffset dx="0" dy="1"></feOffset> <feGaussianBlur stdDeviation="1"></feGaussianBlur> <feComposite in="SourceGraphic"></feComposite></filter><filter id="dropshadow-banner" x="-10%" y="-10%" width="120%" height="130%"><feColorMatrix type="matrix" values="0 0 0 0 0  0 0 0 0 0  0 0 0 0 0  0 0 0 .4 0"></feColorMatrix> <feOffset dx="0" dy="1"></feOffset> <feGaussianBlur stdDeviation="0.5"></feGaussianBlur> <feComposite in="SourceGraphic"></feComposite></filter></defs><g fill="none" fill-rule="nonzero" stroke="none" stroke-width="none" stroke-linecap="butt" stroke-linejoin="miter" stroke-miterlimit="10" stroke-dasharray="" stroke-dashoffset="0" font-family="none" font-weight="none" font-size="none" text-anchor="none" style="mix-blend-mode: normal"><path d="M2,24c0,-12.15026 9.84974,-22 22,-22c12.15026,0 22,9.84974 22,22c0,12.15026 -9.84974,22 -22,22c-12.15026,0 -22,-9.84974 -22,-22z" id="base 1 5" fill-opacity="0" fill="#a82d2d" stroke-width="1"></path><path d="" fill="url(#color-1)" stroke-width="1"></path><path d="M24,14.22989c-5.39799,0 -9.77011,4.37212 -9.77011,9.77011c0,5.39799 4.37212,9.77011 9.77011,9.77011c5.39799,0 9.77011,-4.37212 9.77011,-9.77011c0,-5.39799 -4.37212,-9.77011 -9.77011,-9.77011zM24.97701,30.83908h-1.95402v-1.95402h1.95402zM26.99454,23.27213l-0.87442,0.89885c-0.70345,0.70345 -1.1431,1.29454 -1.1431,2.76006h-1.95402v-0.48851c0,-1.0796 0.43965,-2.05661 1.1431,-2.76494l1.21638,-1.23103c0.35172,-0.35172 0.57155,-0.84023 0.57155,-1.37759c0,-1.0796 -0.87442,-1.95402 -1.95402,-1.95402c-1.0796,0 -1.95402,0.87442 -1.95402,1.95402h-1.95402c0,-2.15919 1.74885,-3.90804 3.90804,-3.90804c2.15919,0 3.90804,1.74885 3.90804,3.90804c0,0.85977 -0.34684,1.63649 -0.91351,2.20316z" fill="none" stroke-width="0"></path><path d="M33.77011,24c0,5.39799 -4.37212,9.77011 -9.77011,9.77011c-5.39799,0 -9.77011,-4.37212 -9.77011,-9.77011c0,-5.39799 4.37212,-9.77011 9.77011,-9.77011c5.39799,0 9.77011,4.37212 9.77011,9.77011zM24.97701,28.88505h-1.95402v1.95402h1.95402zM27.90804,21.06897c0,-2.15919 -1.74885,-3.90804 -3.90804,-3.90804c-2.15919,0 -3.90804,1.74885 -3.90804,3.90804h1.95402c0,-1.0796 0.87442,-1.95402 1.95402,-1.95402c1.0796,0 1.95402,0.87442 1.95402,1.95402c0,0.53736 -0.21983,1.02586 -0.57155,1.37759l-1.21638,1.23103c-0.70345,0.70833 -1.1431,1.68534 -1.1431,2.76494v0.48851h1.95402c0,-1.46552 0.43965,-2.05661 1.1431,-2.76006l0.87442,-0.89885c0.56667,-0.56667 0.91351,-1.34339 0.91351,-2.20316z" fill="#ffffff" stroke-width="0"></path><path d="M2,24c0,-12.15026 9.84974,-22 22,-22c12.15026,0 22,9.84974 22,22c0,12.15026 -9.84974,22 -22,22c-12.15026,0 -22,-9.84974 -22,-22z" id="base 1 1 1" fill="none" stroke-width="1"></path><g fill="#000000" stroke-width="1" font-family="Roboto, sans-serif" font-weight="400" font-size="14" text-anchor="start"></g><rect x="2" y="2" width="44" height="22" fill="none" stroke-width="1"></rect><path d="M2,24v-22h44v22z" fill="none" stroke-width="1"></path><path d="M2,24v-22h44v22z" fill="none" stroke-width="1"></path><path d="M2,24v-22h44v22z" fill="none" stroke-width="1"></path><path d="M2,24v-22h44v22z" fill="none" stroke-width="1"></path></g></svg>