<svg xmlns="http://www.w3.org/2000/svg" width="410" height="410" viewBox="0 0 410 410">
  <g id="mobile" transform="translate(-13297.355 -8531.709)">
    <rect id="Rectangle_9" data-name="Rectangle 9" width="410" height="410" transform="translate(13297.355 8531.709)" fill="none"/>
    <path id="mobile-alt" d="M163.476,0H28.849A28.856,28.856,0,0,0,0,28.849V278.87a28.856,28.856,0,0,0,28.849,28.849H163.476a28.856,28.856,0,0,0,28.849-28.849V28.849A28.856,28.856,0,0,0,163.476,0ZM96.162,288.486a19.232,19.232,0,1,1,19.232-19.232A19.212,19.212,0,0,1,96.162,288.486Zm67.313-64.909a7.233,7.233,0,0,1-7.212,7.212H36.061a7.233,7.233,0,0,1-7.212-7.212V36.061a7.233,7.233,0,0,1,7.212-7.212h120.2a7.233,7.233,0,0,1,7.212,7.212Z" transform="translate(13406.193 8582.85)"/>
  </g>
</svg>
