<svg version="1.1" xmlns="http://www.w3.org/2000/svg" xmlns:xlink="http://www.w3.org/1999/xlink" width="48" height="48"><defs><linearGradient x1="0" y1="0" x2="0" y2="0" gradientUnits="userSpaceOnUse" id="color-1"><stop offset="0" stop-color="#000000" stop-opacity="0.3"></stop><stop offset="1" stop-color="#000000" stop-opacity="0"></stop></linearGradient><filter id="dropshadow-base"><feColorMatrix type="matrix" values="0 0 0 0 0  0 0 0 0 0  0 0 0 0 0  0 0 0 .8 0"></feColorMatrix> <feOffset dx="0" dy="1"></feOffset> <feGaussianBlur stdDeviation="1"></feGaussianBlur> <feComposite in="SourceGraphic"></feComposite></filter><filter id="dropshadow-banner" x="-10%" y="-10%" width="120%" height="130%"><feColorMatrix type="matrix" values="0 0 0 0 0  0 0 0 0 0  0 0 0 0 0  0 0 0 .4 0"></feColorMatrix> <feOffset dx="0" dy="1"></feOffset> <feGaussianBlur stdDeviation="0.5"></feGaussianBlur> <feComposite in="SourceGraphic"></feComposite></filter></defs><g fill="none" fill-rule="nonzero" stroke="none" stroke-width="none" stroke-linecap="butt" stroke-linejoin="miter" stroke-miterlimit="10" stroke-dasharray="" stroke-dashoffset="0" font-family="none" font-weight="none" font-size="none" text-anchor="none" style="mix-blend-mode: normal"><path d="M2,24c0,-12.15026 9.84974,-22 22,-22c12.15026,0 22,9.84974 22,22c0,12.15026 -9.84974,22 -22,22c-12.15026,0 -22,-9.84974 -22,-22z" id="base 1 5" fill-opacity="0" fill="#512da8" stroke-width="1"></path><path d="" fill="url(#color-1)" stroke-width="1"></path><path d="M29.42784,14.22989h-13.02681c-1.19955,0 -2.17114,0.97158 -2.17114,2.17114v15.19795c0,1.19955 0.97158,2.17114 2.17114,2.17114h15.19795c1.19955,0 2.17114,-0.97158 2.17114,-2.17114v-13.02681zM24,31.59897c-1.79661,0 -3.2567,-1.46009 -3.2567,-3.2567c0,-1.79661 1.46009,-3.2567 3.2567,-3.2567c1.79661,0 3.2567,1.46009 3.2567,3.2567c0,1.79661 -1.46009,3.2567 -3.2567,3.2567zM27.2567,20.7433h-10.85568v-4.34227h10.85568z" fill="none" stroke-width="0"></path><path d="M33.77011,18.57216v13.02681c0,1.19955 -0.97158,2.17114 -2.17114,2.17114h-15.19795c-1.19955,0 -2.17114,-0.97158 -2.17114,-2.17114v-15.19795c0,-1.19955 0.97158,-2.17114 2.17114,-2.17114h13.02681zM27.2567,28.34227c0,-1.79661 -1.46009,-3.2567 -3.2567,-3.2567c-1.79661,0 -3.2567,1.46009 -3.2567,3.2567c0,1.79661 1.46009,3.2567 3.2567,3.2567c1.79661,0 3.2567,-1.46009 3.2567,-3.2567zM27.2567,16.40103h-10.85568v4.34227h10.85568z" fill="#ffffff" stroke-width="0"></path><path d="M2,24c0,-12.15026 9.84974,-22 22,-22c12.15026,0 22,9.84974 22,22c0,12.15026 -9.84974,22 -22,22c-12.15026,0 -22,-9.84974 -22,-22z" id="base 1 1 1" fill="none" stroke-width="1"></path><g fill="#000000" stroke-width="1" font-family="Roboto, sans-serif" font-weight="400" font-size="14" text-anchor="start"></g><rect x="2" y="2" width="44" height="22" fill="none" stroke-width="1"></rect><path d="M2,24v-22h44v22z" fill="none" stroke-width="1"></path><path d="M2,24v-22h44v22z" fill="none" stroke-width="1"></path><path d="M2,24v-22h44v22z" fill="none" stroke-width="1"></path><path d="M2,24v-22h44v22z" fill="none" stroke-width="1"></path></g></svg>